<mxfile host="app.diagrams.net" agent="Mozilla/5.0 (Windows NT 10.0; Win64; x64) AppleWebKit/537.36 (KHTML, like Gecko) Chrome/136.0.0.0 Safari/537.36" version="27.0.3">
  <diagram name="Trang-1" id="gv5hZPDhBHKq9h8z9x9y">
    <mxGraphModel dx="1005" dy="435" grid="1" gridSize="10" guides="1" tooltips="1" connect="1" arrows="1" fold="1" page="1" pageScale="1" pageWidth="827" pageHeight="1169" math="0" shadow="0">
      <root>
        <mxCell id="0" />
        <mxCell id="1" parent="0" />
        <mxCell id="qDUdyBmEIclbAugO58Hc-1" value="" style="shape=mxgraph.cisco.computers_and_peripherals.ibm_mini_as400;sketch=0;html=1;pointerEvents=1;dashed=0;fillColor=#036897;strokeColor=#ffffff;strokeWidth=2;verticalLabelPosition=bottom;verticalAlign=top;align=center;outlineConnect=0;" vertex="1" parent="1">
          <mxGeometry x="40" y="122" width="43" height="62" as="geometry" />
        </mxCell>
        <mxCell id="qDUdyBmEIclbAugO58Hc-2" value="" style="shape=mxgraph.cisco.controllers_and_modules.service_module;sketch=0;html=1;pointerEvents=1;dashed=0;fillColor=#036897;strokeColor=#ffffff;strokeWidth=2;verticalLabelPosition=bottom;verticalAlign=top;align=center;outlineConnect=0;" vertex="1" parent="1">
          <mxGeometry x="250" y="122" width="51" height="66" as="geometry" />
        </mxCell>
        <mxCell id="qDUdyBmEIclbAugO58Hc-3" value="" style="shape=mxgraph.cisco.controllers_and_modules.service_module;sketch=0;html=1;pointerEvents=1;dashed=0;fillColor=#036897;strokeColor=#ffffff;strokeWidth=2;verticalLabelPosition=bottom;verticalAlign=top;align=center;outlineConnect=0;" vertex="1" parent="1">
          <mxGeometry x="460" y="116" width="51" height="66" as="geometry" />
        </mxCell>
        <mxCell id="qDUdyBmEIclbAugO58Hc-4" value="" style="shape=mxgraph.cisco.computers_and_peripherals.pc;sketch=0;html=1;pointerEvents=1;dashed=0;fillColor=#036897;strokeColor=#ffffff;strokeWidth=2;verticalLabelPosition=bottom;verticalAlign=top;align=center;outlineConnect=0;" vertex="1" parent="1">
          <mxGeometry x="640" y="120" width="78" height="70" as="geometry" />
        </mxCell>
        <mxCell id="qDUdyBmEIclbAugO58Hc-8" value="FILE SERVER&lt;div&gt;&lt;br&gt;&lt;/div&gt;" style="text;html=1;align=center;verticalAlign=middle;whiteSpace=wrap;rounded=0;" vertex="1" parent="1">
          <mxGeometry x="21.5" y="200" width="80" height="30" as="geometry" />
        </mxCell>
        <mxCell id="qDUdyBmEIclbAugO58Hc-9" value="Vmnet2" style="text;strokeColor=none;fillColor=none;html=1;align=center;verticalAlign=middle;whiteSpace=wrap;rounded=0;fontSize=16;" vertex="1" parent="1">
          <mxGeometry x="130" y="134" width="60" height="30" as="geometry" />
        </mxCell>
        <mxCell id="qDUdyBmEIclbAugO58Hc-10" value="vmnet3" style="text;strokeColor=none;fillColor=none;html=1;align=center;verticalAlign=middle;whiteSpace=wrap;rounded=0;fontSize=16;" vertex="1" parent="1">
          <mxGeometry x="354" y="134" width="60" height="30" as="geometry" />
        </mxCell>
        <mxCell id="qDUdyBmEIclbAugO58Hc-13" value="vmnet4&lt;div&gt;&lt;br&gt;&lt;/div&gt;" style="text;strokeColor=none;fillColor=none;html=1;align=center;verticalAlign=middle;whiteSpace=wrap;rounded=0;fontSize=16;" vertex="1" parent="1">
          <mxGeometry x="550" y="140" width="60" height="30" as="geometry" />
        </mxCell>
        <mxCell id="qDUdyBmEIclbAugO58Hc-14" value="VPNSERVER&lt;div&gt;HANOI&lt;/div&gt;" style="text;strokeColor=none;fillColor=none;html=1;align=center;verticalAlign=middle;whiteSpace=wrap;rounded=0;fontSize=16;" vertex="1" parent="1">
          <mxGeometry x="241" y="220" width="60" height="30" as="geometry" />
        </mxCell>
        <mxCell id="qDUdyBmEIclbAugO58Hc-15" value="VPNSERVER&lt;div&gt;SAIGON&lt;/div&gt;" style="text;strokeColor=none;fillColor=none;html=1;align=center;verticalAlign=middle;whiteSpace=wrap;rounded=0;fontSize=16;" vertex="1" parent="1">
          <mxGeometry x="455.5" y="220" width="60" height="30" as="geometry" />
        </mxCell>
        <mxCell id="qDUdyBmEIclbAugO58Hc-17" value="192.168.1.254/24" style="text;strokeColor=none;fillColor=none;html=1;align=center;verticalAlign=middle;whiteSpace=wrap;rounded=0;fontSize=16;" vertex="1" parent="1">
          <mxGeometry x="40" y="50" width="60" height="30" as="geometry" />
        </mxCell>
        <mxCell id="qDUdyBmEIclbAugO58Hc-18" value="192.168.1.1/24" style="text;strokeColor=none;fillColor=none;html=1;align=center;verticalAlign=middle;whiteSpace=wrap;rounded=0;fontSize=16;" vertex="1" parent="1">
          <mxGeometry x="200" y="50" width="60" height="30" as="geometry" />
        </mxCell>
        <mxCell id="qDUdyBmEIclbAugO58Hc-19" value="172.16.1.1/24" style="text;strokeColor=none;fillColor=none;html=1;align=center;verticalAlign=middle;whiteSpace=wrap;rounded=0;fontSize=16;" vertex="1" parent="1">
          <mxGeometry x="320" y="50" width="60" height="30" as="geometry" />
        </mxCell>
        <mxCell id="qDUdyBmEIclbAugO58Hc-20" value="172.16.1.2/24" style="text;strokeColor=none;fillColor=none;html=1;align=center;verticalAlign=middle;whiteSpace=wrap;rounded=0;fontSize=16;" vertex="1" parent="1">
          <mxGeometry x="431" y="50" width="60" height="30" as="geometry" />
        </mxCell>
        <mxCell id="qDUdyBmEIclbAugO58Hc-21" value="10.0.0.1/24" style="text;strokeColor=none;fillColor=none;html=1;align=center;verticalAlign=middle;whiteSpace=wrap;rounded=0;fontSize=16;" vertex="1" parent="1">
          <mxGeometry x="531" y="50" width="60" height="30" as="geometry" />
        </mxCell>
        <mxCell id="qDUdyBmEIclbAugO58Hc-22" value="10.0.0.2/24" style="text;strokeColor=none;fillColor=none;html=1;align=center;verticalAlign=middle;whiteSpace=wrap;rounded=0;fontSize=16;" vertex="1" parent="1">
          <mxGeometry x="640" y="60" width="60" height="30" as="geometry" />
        </mxCell>
        <mxCell id="qDUdyBmEIclbAugO58Hc-23" value="CLIENT" style="text;strokeColor=none;fillColor=none;html=1;align=center;verticalAlign=middle;whiteSpace=wrap;rounded=0;fontSize=16;" vertex="1" parent="1">
          <mxGeometry x="649" y="210" width="60" height="30" as="geometry" />
        </mxCell>
      </root>
    </mxGraphModel>
  </diagram>
</mxfile>
